Coordinates
version=1
nRows=7
nColumns=63
inDegrees=yes

Units are S.I. units (second, meters, Newtons, ...)
If the header above contains a line with 'inDegrees', this indicates whether rotational values are in degrees (yes) or radians (no).

endheader
time	pelvis_tilt	pelvis_list	pelvis_rotation	pelvis_tx	pelvis_ty	pelvis_tz	hip_flexion_r	hip_adduction_r	hip_rotation_r	knee_angle_r	knee_angle_r_beta	ankle_angle_r	subtalar_angle_r	mtp_angle_r	hip_flexion_l	hip_adduction_l	hip_rotation_l	knee_angle_l	knee_angle_l_beta	ankle_angle_l	subtalar_angle_l	mtp_angle_l	L5_S1_Flex_Ext	L5_S1_Lat_Bending	L5_S1_axial_rotation	L4_L5_Flex_Ext	L4_L5_Lat_Bending	L4_L5_axial_rotation	L3_L4_Flex_Ext	L3_L4_Lat_Bending	L3_L4_axial_rotation	L2_L3_Flex_Ext	L2_L3_Lat_Bending	L2_L3_axial_rotation	L1_L2_Flex_Ext	L1_L2_Lat_Bending	L1_L2_axial_rotation	L1_T12_Flex_Ext	L1_T12_Lat_Bending	L1_T12_axial_rotation	Abs_r3	Abs_r2	Abs_r1	Abs_t1	Abs_t2	neck_flexion	neck_bending	neck_rotation	arm_flex_r	arm_add_r	arm_rot_r	elbow_flex_r	pro_sup_r	wrist_flex_r	wrist_dev_r	arm_flex_l	arm_add_l	arm_rot_l	elbow_flex_l	pro_sup_l	wrist_flex_l	wrist_dev_l
      7.75925926	     16.05359752	     26.76308057	     91.80603457	      0.21780853	      0.82112432	      0.86161798	    -22.20269283	     16.63392577	    -17.09016285	     12.91614665	      0.22542929	     30.81371905	     16.80844524	      0.00000000	      0.86698148	    -20.44946660	      2.84749946	     49.23377564	      0.85929149	     38.12514644	      4.71713501	      0.00000000	     -1.59704917	      3.23701995	      7.68208212	     -2.96588001	      4.30523653	      8.16221225	     -2.62379208	      7.87049030	      8.16221225	     -1.82526749	      7.87049030	      6.72182185	     -1.48301986	      6.60093107	      6.24169172	     -0.91255389	      5.01414390	      5.76156159	    -11.40756250	     36.61781703	     42.72543610	      0.00000000	      0.00000000	     23.48449389	      2.36554204	    -43.27058735	    177.83640112	    -68.68990142	    221.92900527	      0.06693918	      0.93933899	    -69.85230437	    -24.21136235	    135.55342904	   -107.34392184	     -1.52066161	     21.97455689	      0.50710463	    -10.70354145	     22.34585993
      7.77777778	     15.65802530	     24.30455747	     93.76371628	      0.21807608	      0.81684278	      0.85476620	    -19.73368468	     16.97376358	    -18.98613534	     12.61766512	      0.22021980	     31.35698390	     17.03714281	      0.00000000	      4.48871150	    -20.01825727	      5.02063059	     50.19093032	      0.87599699	     38.00118035	      4.78416526	      0.00000000	     -1.51853632	      3.20441983	      6.07428866	     -2.82007380	      4.26187837	      6.45393171	     -2.49480332	      7.79122637	      6.45393171	     -1.73553516	      7.79122637	      5.31500258	     -1.41011282	      6.53445291	      4.93535954	     -0.86769165	      4.96364631	      4.55571650	    -10.84675307	     36.24903796	     33.78337127	      0.00000000	      0.00000000	     22.00688838	      0.95327577	    -33.98344895	    153.95910993	    -63.84096025	    196.14770416	      0.06372715	      0.94857740	    -69.86673769	    -24.27745116	    125.60908149	   -115.48294413	     -7.23393733	     24.65860595	      0.55545390	    -10.05267946	     19.30786283
      7.79629630	     13.32262580	     19.54619050	     96.90306361	      0.22215018	      0.81211811	      0.84076340	    -15.38648947	     15.69619985	    -21.14011090	     11.89089123	      0.20753520	     32.49952156	     16.62741277	      0.00000000	      9.49978961	    -17.57141915	      6.80831965	     50.06230018	      0.87375197	     37.71471708	      5.29592999	      0.00000000	     -1.30056555	      2.89469090	      2.55282940	     -2.41528028	      3.84993890	      2.71238124	     -2.13669914	      7.03815145	      2.71238124	     -1.48641636	      7.03815145	      2.23372573	     -1.20770517	      5.90285368	      2.07417389	     -0.74314315	      4.48387620	      1.91462205	     -9.28980964	     32.74532240	     14.19807130	      0.00000000	      0.00000000	     17.86095476	      3.71953480	    -10.59276518	    123.53035024	    -45.51571228	    161.31142916	      0.06207110	      1.03853571	    -69.87105272	    -24.30645117	    114.01147341	   -134.72724263	     -8.85745627	     29.65355579	      0.70948745	     -9.08957369	     14.94281365
      7.81481481	      9.63565970	     13.67240928	     99.44427605	      0.23124312	      0.80874850	      0.82143071	    -10.87003157	     12.74253932	    -21.96647779	     10.68377427	      0.18646704	     33.85547867	     15.64260449	      0.00000000	     13.68228795	    -13.90490892	      6.41052489	     48.32638354	      0.84345451	     37.33840637	      6.50360718	      0.00000000	     -0.85775037	      2.39300201	     -0.76720566	     -1.59292821	      3.18269267	     -0.81515602	     -1.40919808	      5.81834509	     -0.81515602	     -0.98032289	      5.81834509	     -0.67130496	     -0.79650699	      4.87980970	     -0.62335460	     -0.49011856	      3.70676011	     -0.57540425	     -6.12682509	     27.07011734	     -4.26696774	      0.00000000	      0.00000000	     14.90645685	      6.07205635	     12.13860659	    111.86498083	    -24.49015367	    145.53230989	      0.06376213	      1.20126982	    -69.85789487	    -24.26902266	    111.65397694	   -153.13181335	     -3.79082843	     39.38463927	      2.00668806	     -6.52347164	      5.75369208
      7.83333333	      7.27536380	      9.39940806	    101.46761913	      0.23776058	      0.80654039	      0.80868705	     -7.69269071	     10.71057210	    -23.03803952	      9.58972139	      0.16737221	     34.65014056	     15.36837422	      0.00000000	     16.55829092	    -11.29296426	      6.29278420	     46.63491939	      0.81393289	     37.22075488	      7.56068001	      0.00000000	     -0.46152786	      2.14761470	     -2.79119485	     -0.85710339	      2.85632755	     -2.96564453	     -0.75824413	      5.22171038	     -2.96564453	     -0.52748019	      5.22171038	     -2.44229550	     -0.42857477	      4.37941590	     -2.26784582	     -0.26371702	      3.32665517	     -2.09339614	     -3.29664737	     24.29424700	    -15.52378842	      0.00000000	      0.00000000	     15.15423781	      6.37810758	     28.37758234	    109.86345113	    -10.54815820	    140.26028119	      0.06701826	      1.35607245	    -69.83551934	    -24.21899127	    118.34416616	   -159.90688028	     -6.12374339	     57.71052252	     49.05489922	     -8.82239018	     -2.28522990
      7.85185185	      6.04856860	      7.89263077	    102.56456372	      0.24138796	      0.80692123	      0.80539416	     -6.67835116	      9.73936874	    -23.41084442	      8.85824124	      0.15460548	     34.91116011	     15.16593244	      0.00000000	     17.25107260	     -9.98752829	      6.21792071	     45.35511303	      0.79159605	     37.29013015	      8.11490097	      0.00000000	     -0.31827142	      2.06717698	     -3.26715583	     -0.59106185	      2.74934538	     -3.47135307	     -0.52288811	      5.02613410	     -3.47135307	     -0.36375240	      5.02613410	     -2.85876135	     -0.29554684	      4.21538729	     -2.65456411	     -0.18186029	      3.20205714	     -2.45036687	     -2.27338092	     23.38431941	    -18.17094056	      0.00000000	      0.00000000	     15.86015155	      5.13334802	     34.65354138	    111.19310164	     -4.26469913	    139.09069080	      0.06949312	      1.45831251	    -69.81631207	    -24.21730136	    128.45493724	   -156.95754581	     -3.53736853	     81.34393479	     77.77460361	     -7.81315404	     -8.06800475
      7.87037037	      5.29277669	      7.76729576	    103.50925251	      0.24356616	      0.80804870	      0.80689087	     -6.71349380	      9.33543837	    -23.73183544	      8.28763514	      0.14464652	     34.96675706	     14.99697111	      0.00000000	     17.10322870	     -9.21193905	      6.54240596	     44.58116419	      0.77808810	     37.46108667	      8.34296415	      0.00000000	     -0.31618717	      2.03769771	     -3.10325834	     -0.58719120	      2.71013796	     -3.29721199	     -0.51946391	      4.95445822	     -3.29721199	     -0.36137032	      4.95445822	     -2.71535105	     -0.29361141	      4.15527318	     -2.52139740	     -0.18066935	      3.15639376	     -2.32744376	     -2.25849336	     23.05084407	    -17.25939192	      0.00000000	      0.00000000	     16.12208674	      3.45374343	     35.88357590	    113.37824282	     -0.66442876	    139.42597050	      0.07097112	      1.45725940	    -69.80851519	    -24.25753660	    135.39869488	   -150.95155627	      5.17862332	     98.86775791	     86.01965614	     -6.02127093	     -9.68906350
